<?xml version="1.0"?>
<svg xmlns="http://www.w3.org/2000/svg" xmlns:xlink="http://www.w3.org/1999/xlink" xmlns:svgjs="http://svgjs.com/svgjs" version="1.1" width="512" height="512" x="0" y="0" viewBox="0 0 512 512" style="enable-background:new 0 0 512 512" xml:space="preserve" class=""><g><path xmlns="http://www.w3.org/2000/svg" d="m474.76 118h-437.51a19.994 19.994 0 0 0 -20 20v236a19.994 19.994 0 0 0 20 20h437.51a20 20 0 0 0 20-20v-236a20 20 0 0 0 -20-20z" fill="#add8e6" data-original="#5fcda4" style="" class=""/><path xmlns="http://www.w3.org/2000/svg" d="m47.25 374v-236a19.994 19.994 0 0 1 20-20h-30a19.994 19.994 0 0 0 -20 20v236a19.994 19.994 0 0 0 20 20h30a19.994 19.994 0 0 1 -20-20z" fill="#add8e6" data-original="#52a885" style="" class=""/><g xmlns="http://www.w3.org/2000/svg" fill="#4ca987"><circle cx="416" cy="256" r="21.44" fill="#add8e6" data-original="#4ca987" style="" class=""/><circle cx="256" cy="256" r="98.5" fill="#add8e6" data-original="#4ca987" style="" class=""/><circle cx="96" cy="256" r="21.44" fill="#add8e6" data-original="#4ca987" style="" class=""/><path d="m470.24 330a40 40 0 0 0 -40 40v24h44.52a20 20 0 0 0 20-20v-44z" fill="#add8e6" data-original="#4ca987" style="" class=""/><path d="m474.76 118h-44.51v23.98a40 40 0 0 0 40 40h24.51v-43.98a20 20 0 0 0 -20-20z" fill="#add8e6" data-original="#4ca987" style="" class=""/><path d="m41.23 330h-23.98v44a19.994 19.994 0 0 0 20 20h43.98v-24a40 40 0 0 0 -40-40z" fill="#add8e6" data-original="#4ca987" style="" class=""/><path d="m17.25 138v43.98h23.98a40 40 0 0 0 40-40v-23.98h-43.98a19.994 19.994 0 0 0 -20 20z" fill="#add8e6" data-original="#4ca987" style="" class=""/></g><path xmlns="http://www.w3.org/2000/svg" d="m47.25 374v-43.548a40.24 40.24 0 0 0 -6.02-.452h-23.98v44a19.994 19.994 0 0 0 20 20h30a19.994 19.994 0 0 1 -20-20z" fill="#add8e6" data-original="#3b7f63" style="" class=""/><path xmlns="http://www.w3.org/2000/svg" d="m67.25 118h-30a19.994 19.994 0 0 0 -20 20v43.98h23.98a40.24 40.24 0 0 0 6.02-.452v-43.528a19.994 19.994 0 0 1 20-20z" fill="#add8e6" data-original="#3b7f63" style="" class=""/><path xmlns="http://www.w3.org/2000/svg" d="m187.5 256a98.524 98.524 0 0 1 83.5-97.365 98.5 98.5 0 1 0 0 194.73 98.524 98.524 0 0 1 -83.5-97.365z" fill="#add8e6" data-original="#3b7f63" style="" class=""/><path xmlns="http://www.w3.org/2000/svg" d="m360.5 256a104.5 104.5 0 1 0 -104.5 104.5 104.619 104.619 0 0 0 104.5-104.5zm-197 0a92.5 92.5 0 1 1 92.5 92.5 92.6 92.6 0 0 1 -92.5-92.5z" fill="#000000" data-original="#284268" style="" class=""/><path xmlns="http://www.w3.org/2000/svg" d="m96 228.562a27.438 27.438 0 1 0 27.437 27.438 27.469 27.469 0 0 0 -27.437-27.438zm0 42.876a15.438 15.438 0 1 1 15.437-15.438 15.455 15.455 0 0 1 -15.437 15.438z" fill="#000000" data-original="#284268" style="" class=""/><path xmlns="http://www.w3.org/2000/svg" d="m443.437 256a27.437 27.437 0 1 0 -27.437 27.438 27.469 27.469 0 0 0 27.437-27.438zm-42.874 0a15.437 15.437 0 1 1 15.437 15.438 15.455 15.455 0 0 1 -15.437-15.438z" fill="#000000" data-original="#284268" style="" class=""/><path xmlns="http://www.w3.org/2000/svg" d="m262 314.962v-6.956a29 29 0 0 0 -6-57.372 17 17 0 1 1 17-17 6 6 0 1 0 12 0 29.046 29.046 0 0 0 -23-28.372v-8.224a6 6 0 0 0 -12 0v8.224a29 29 0 0 0 6 57.372 16.989 16.989 0 0 1 .726 33.963 5.514 5.514 0 0 0 -1.452 0 17.006 17.006 0 0 1 -16.274-16.963 6 6 0 0 0 -12 0 29.048 29.048 0 0 0 23 28.372v6.956a6 6 0 0 0 12 0z" fill="#000000" data-original="#284268" style="" class=""/><path xmlns="http://www.w3.org/2000/svg" d="m47 202.218a6 6 0 0 0 -12 0v4.782a6 6 0 0 0 12 0z" fill="#000000" data-original="#284268" style="" class=""/><path xmlns="http://www.w3.org/2000/svg" d="m41 222.818a6 6 0 0 0 -6 6v61.182a6 6 0 0 0 12 0v-61.182a6 6 0 0 0 -6-6z" fill="#000000" data-original="#284268" style="" class=""/><path xmlns="http://www.w3.org/2000/svg" d="m475 112h-316a6 6 0 0 0 0 12h265v17.982a46.018 46.018 0 0 0 46.018 46.018h18.982v136h-18.755a46.381 46.381 0 0 0 -46.245 46.245v17.755h-337v-18a46 46 0 0 0 -46-46h-18v-136h18.227a45.773 45.773 0 0 0 45.773-45.773v-18.227h30a6 6 0 0 0 0-12h-80a26 26 0 0 0 -26 26v236a26 26 0 0 0 26 26h438a26 26 0 0 0 26-26v-236a26 26 0 0 0 -26-26zm-452 26a14.227 14.227 0 0 1 14.245-14h37.755v17.982a33.86 33.86 0 0 1 -33.773 34.018h-18.227zm52 250h-37.755a14.227 14.227 0 0 1 -14.245-14v-38h18.227a33.845 33.845 0 0 1 33.773 34zm414-14a14.227 14.227 0 0 1 -14.245 14h-38.755v-18a34.248 34.248 0 0 1 34.245-34h18.755zm0-198h-18.755a34.264 34.264 0 0 1 -34.245-34.018v-17.982h38.755a14.227 14.227 0 0 1 14.245 14z" fill="#000000" data-original="#284268" style="" class=""/></g></svg>
