<?xml version="1.0"?>
<svg xmlns="http://www.w3.org/2000/svg" xmlns:xlink="http://www.w3.org/1999/xlink" xmlns:svgjs="http://svgjs.com/svgjs" version="1.1" width="512" height="512" x="0" y="0" viewBox="0 0 512 512" style="enable-background:new 0 0 512 512" xml:space="preserve" class=""><g>
<path xmlns="http://www.w3.org/2000/svg" style="" d="M256,10c132.33,0,246,113.67,246,246S388.33,502,256,502S10,388.33,10,256S123.67,10,256,10z" fill="#ffe169" data-original="#ff77ad" class=""/>
<path xmlns="http://www.w3.org/2000/svg" style="" d="M256,442c-99.084,0-186-86.916-186-186S156.916,70,256,70s186,86.916,186,186S355.084,442,256,442z" fill="#d7d7d7" data-original="#ffe169" class=""/>
<path xmlns="http://www.w3.org/2000/svg" d="M206,216c0,27.57,22.43,50,50,50c16.542,0,30,13.458,30,30s-13.458,30-30,30s-30-13.458-30-30c0-5.523-4.477-10-10-10  s-10,4.477-10,10c0,24.146,17.205,44.348,40,48.994V366c0,5.523,4.478,10,10,10s10-4.477,10-10v-21.006  c22.795-4.646,40-24.847,40-48.994c0-27.57-22.43-50-50-50c-16.542,0-30-13.458-30-30s13.458-30,30-30s30,13.458,30,30  c0,5.523,4.478,10,10,10s10-4.477,10-10c0-24.146-17.205-44.348-40-48.994V146c0-5.523-4.478-10-10-10s-10,4.477-10,10v21.006  C223.205,171.652,206,191.854,206,216z" fill="#000000" data-original="#000000" style=""/>
<path xmlns="http://www.w3.org/2000/svg" d="M256,0C118.122,0,0,118.12,0,256c0,137.878,118.12,256,256,256c137.852,0,256-118.096,256-256C512,118.359,394.114,0,256,0z   M256,492C130.28,492,20,381.72,20,256S130.28,20,256,20s236,110.28,236,236S381.72,492,256,492z" fill="#000000" data-original="#000000" style=""/>
<path xmlns="http://www.w3.org/2000/svg" d="M298.141,64.969c-5.371-1.274-10.764,2.045-12.04,7.419c-1.276,5.373,2.046,10.764,7.419,12.04  C372.467,103.173,432,176.934,432,256c0,93.757-82.243,176-176,176S80,349.757,80,256c0-79.066,59.533-152.826,138.479-171.572  c5.374-1.276,8.695-6.667,7.419-12.04c-1.276-5.374-6.665-8.696-12.04-7.419C126.91,85.615,60,166.892,60,256  c0,104.2,91.099,196,196,196c104.2,0,196-91.099,196-196C452,166.969,385.162,85.632,298.141,64.969z" fill="#000000" data-original="#000000" style=""/>
<circle xmlns="http://www.w3.org/2000/svg" cx="256" cy="71" r="10" fill="#000000" data-original="#000000" style=""/>
<g xmlns="http://www.w3.org/2000/svg">
</g>
<g xmlns="http://www.w3.org/2000/svg">
</g>
<g xmlns="http://www.w3.org/2000/svg">
</g>
<g xmlns="http://www.w3.org/2000/svg">
</g>
<g xmlns="http://www.w3.org/2000/svg">
</g>
<g xmlns="http://www.w3.org/2000/svg">
</g>
<g xmlns="http://www.w3.org/2000/svg">
</g>
<g xmlns="http://www.w3.org/2000/svg">
</g>
<g xmlns="http://www.w3.org/2000/svg">
</g>
<g xmlns="http://www.w3.org/2000/svg">
</g>
<g xmlns="http://www.w3.org/2000/svg">
</g>
<g xmlns="http://www.w3.org/2000/svg">
</g>
<g xmlns="http://www.w3.org/2000/svg">
</g>
<g xmlns="http://www.w3.org/2000/svg">
</g>
<g xmlns="http://www.w3.org/2000/svg">
</g>
</g></svg>
